<svg width="344.232470703125px" height="114.8175048828125px" xmlns="http://www.w3.org/2000/svg" viewBox="77.8837646484375 17.59124755859375 344.232470703125 114.8175048828125" style="background: rgba(0, 0, 0, 0);" preserveAspectRatio="xMidYMid"><defs><filter id="editing-hole" x="-100%" y="-100%" width="300%" height="300%"><feFlood flood-color="#000000" result="black"></feFlood><feMorphology operator="dilate" radius="2" in="SourceGraphic" result="erode"></feMorphology><feGaussianBlur in="erode" stdDeviation="4" result="blur"></feGaussianBlur><feOffset in="blur" dx="2" dy="2" result="offset"></feOffset><feComposite operator="atop" in="offset" in2="black" result="merge"></feComposite><feComposite operator="in" in="merge" in2="SourceGraphic" result="inner-shadow"></feComposite></filter></defs><g filter="url(#editing-hole)"><g transform="translate(129.71500325202942, 98.03999900817871)"><path d="M4.99-33.73L4.99-33.73L4.99-33.73Q4.99-39.94 8.13-42.69L8.13-42.69L8.13-42.69Q11.26-45.44 18.30-45.44L18.30-45.44L18.30-45.44Q23.23-45.44 26.24-42.88L26.24-42.88L26.24-42.88Q29.25-40.32 30.59-35.07L30.59-35.07L24.64-30.59L21.50-30.59L28.42-35.78L28.42-35.78Q27.07-40.06 24.54-41.79L24.54-41.79L24.54-41.79Q22.02-43.52 18.30-43.52L18.30-43.52L18.30-43.52Q15.74-43.52 13.98-43.20L13.98-43.20L13.98-43.20Q12.22-42.88 10.46-41.95L10.46-41.95L10.46-41.95Q8.70-41.02 7.81-38.98L7.81-38.98L7.81-38.98Q6.91-36.93 6.91-33.73L6.91-33.73L6.91-33.73Q6.91-30.91 9.50-28.74L9.50-28.74L9.50-28.74Q12.10-26.56 15.81-25.02L15.81-25.02L15.81-25.02Q19.52-23.49 23.26-21.89L23.26-21.89L23.26-21.89Q27.01-20.29 29.60-17.79L29.60-17.79L29.60-17.79Q32.19-15.30 32.19-12.03L32.19-12.03L32.19-12.03Q32.19-5.63 29.02-2.50L29.02-2.50L29.02-2.50Q25.86 0.64 18.18 0.64L18.18 0.64L18.18 0.64Q11.90 0.64 8.32-1.89L8.32-1.89L8.32-1.89Q4.74-4.42 3.39-9.73L3.39-9.73L5.18-10.50L5.18-10.50Q6.46-5.31 9.57-3.30L9.57-3.30L9.57-3.30Q12.67-1.28 18.18-1.28L18.18-1.28L18.18-1.28Q24.32-1.28 27.30-3.65L27.30-3.65L27.30-3.65Q30.27-6.02 30.27-12.03L30.27-12.03L30.27-12.03Q30.27-14.85 27.68-17.02L27.68-17.02L27.68-17.02Q25.09-19.20 21.34-20.74L21.34-20.74L21.34-20.74Q17.60-22.27 13.89-23.87L13.89-23.87L13.89-23.87Q10.18-25.47 7.58-27.97L7.58-27.97L7.58-27.97Q4.99-30.46 4.99-33.73ZM65.02-37.12L65.02 0L63.10 0L63.10-18.56L43.90-18.56L43.90 0L41.98 0L41.98-37.12L43.90-37.12L43.90-20.48L63.10-20.48L63.10-37.12L65.02-37.12ZM80.58 0L80.58-1.92L101.44-1.92L88.32-32.83L74.37 0L72.32 0L88.32-37.76L104.32 0L80.58 0ZM127.23-18.62L127.23-18.62L135.94 0L133.82 0L124.86-19.20L124.86-19.20Q124.99-19.26 125.98-19.74L125.98-19.74L125.98-19.74Q126.98-20.22 127.36-20.45L127.36-20.45L127.36-20.45Q127.74-20.67 128.64-21.25L128.64-21.25L128.64-21.25Q129.54-21.82 129.98-22.37L129.98-22.37L129.98-22.37Q130.43-22.91 130.98-23.65L130.98-23.65L130.98-23.65Q131.52-24.38 131.78-25.31L131.78-25.31L131.78-25.31Q132.03-26.24 132.03-27.33L132.03-27.33L132.03-27.33Q132.03-31.36 128.19-33.28L128.19-33.28L128.19-33.28Q124.35-35.20 118.66-35.20L118.66-35.20L113.54-35.20L113.54 0L111.62 0L111.62-37.12L118.66-37.12L118.66-37.12Q126.21-37.12 130.08-34.50L130.08-34.50L130.08-34.50Q133.95-31.87 133.95-27.33L133.95-27.33L133.95-27.33Q133.95-24.38 131.97-22.11L131.97-22.11L131.97-22.11Q129.98-19.84 127.23-18.62ZM168.06-5.06L169.47-3.78L169.47-3.78Q165.95 0.64 157.95 0.64L157.95 0.64L157.95 0.64Q149.95 0.64 146.50-3.90L146.50-3.90L146.50-3.90Q143.04-8.45 143.04-18.56L143.04-18.56L143.04-18.56Q143.04-28.67 146.50-33.22L146.50-33.22L146.50-33.22Q149.95-37.76 157.95-37.76L157.95-37.76L157.95-37.76Q167.23-37.76 170.56-31.68L170.56-31.68L154.88-18.56L151.87-18.56L168.06-32.06L168.06-32.06Q165.25-35.84 157.95-35.84L157.95-35.84L157.95-35.84Q154.75-35.84 152.58-35.17L152.58-35.17L152.58-35.17Q150.40-34.50 148.58-32.67L148.58-32.67L148.58-32.67Q146.75-30.85 145.86-27.36L145.86-27.36L145.86-27.36Q144.96-23.87 144.96-18.56L144.96-18.56L144.96-18.56Q144.96-13.25 145.86-9.76L145.86-9.76L145.86-9.76Q146.75-6.27 148.58-4.45L148.58-4.45L148.58-4.45Q150.40-2.62 152.58-1.95L152.58-1.95L152.58-1.95Q154.75-1.28 157.95-1.28L157.95-1.28L157.95-1.28Q165.25-1.28 168.06-5.06L168.06-5.06ZM200.77-44.80L200.77 0L198.85 0L198.85-44.80L200.77-44.80ZM208.38-37.12L237.18-37.12L237.18-35.20L223.74-35.20L223.74 0L221.82 0L221.82-35.20L208.38-35.20L208.38-37.12Z" fill="#000000"></path></g></g><style>text {
  font-size: 64px;
  font-family: Arial Black;
  dominant-baseline: central;
  text-anchor: middle;
}</style></svg>